<svg xmlns="http://www.w3.org/2000/svg" xmlns:xlink="http://www.w3.org/1999/xlink" viewBox="0 0 123.56 162.83"><defs><style>.cls-1{font-size:12px;font-family:Quasimoda-Regular, Quasimoda;}.cls-2{fill:#fff;}.cls-3{fill:url(#linear-gradient);}.cls-4{fill:url(#linear-gradient-2);}.cls-5{fill:url(#linear-gradient-3);}.cls-6{fill:url(#linear-gradient-4);}.cls-7{fill:url(#linear-gradient-5);}.cls-8{fill:url(#linear-gradient-6);}.cls-9{font-size:24px;font-family:BrandonGrotesque-Regular, Brandon Grotesque;}</style><linearGradient id="linear-gradient" x1="29.65" y1="74.87" x2="62.66" y2="74.87" gradientUnits="userSpaceOnUse"><stop offset="0" stop-color="#c15959"/><stop offset="1" stop-color="#2f3861"/></linearGradient><linearGradient id="linear-gradient-2" x1="51.45" y1="73.48" x2="97.71" y2="73.48" xlink:href="#linear-gradient"/><linearGradient id="linear-gradient-3" x1="77.53" y1="102.16" x2="109.24" y2="102.16" xlink:href="#linear-gradient"/><linearGradient id="linear-gradient-4" x1="62.66" y1="128.65" x2="106.46" y2="128.65" xlink:href="#linear-gradient"/><linearGradient id="linear-gradient-5" x1="27.99" y1="129.08" x2="59.23" y2="129.08" xlink:href="#linear-gradient"/><linearGradient id="linear-gradient-6" x1="12.61" y1="111.49" x2="50.35" y2="111.49" xlink:href="#linear-gradient"/></defs><g id="Layer_2" data-name="Layer 2"><g id="Screen4"><text class="cls-1" transform="matrix(0.65, -0.76, 0.76, 0.65, 13.1, 63.1)"> </text><text class="cls-1" transform="matrix(0.7, -0.71, 0.71, 0.7, 15.26, 60.42)">o</text><text class="cls-1" transform="translate(20.01 55.65) rotate(-40.91)">f</text><text class="cls-1" transform="matrix(0.79, -0.61, 0.61, 0.79, 22.56, 53.44)"> </text><text class="cls-1" transform="matrix(0.84, -0.55, 0.55, 0.84, 25.24, 51.29)">c</text><text class="cls-1" transform="translate(30.39 47.99) rotate(-29.12)">l</text><text class="cls-1" transform="translate(32.7 46.6) rotate(-24.72)">o</text><text class="cls-1" transform="matrix(0.94, -0.34, 0.34, 0.94, 38.83, 43.84)">t</text><text class="cls-1" transform="matrix(0.97, -0.26, 0.26, 0.97, 42.53, 42.44)">h</text><text class="cls-1" transform="translate(48.98 40.8) rotate(-10.51)">i</text><text class="cls-1" transform="translate(51.64 40.23) rotate(-6.18)">n</text><text class="cls-1" transform="translate(58.21 39.53) rotate(-0.45)">g</text><text class="cls-1" transform="translate(64.06 39.52) rotate(3.85)"> </text><text class="cls-1" transform="translate(67.56 39.76) rotate(6.76)">i</text><text class="cls-1" transform="matrix(0.98, 0.18, -0.18, 0.98, 70.27, 40.05)">s</text><text class="cls-1" transform="matrix(0.97, 0.24, -0.24, 0.97, 75.06, 40.94)"> </text><text class="cls-1" transform="translate(78.44 41.76) rotate(17.95)">r</text><text class="cls-1" transform="matrix(0.92, 0.39, -0.39, 0.92, 82.61, 43.07)">e</text><text class="cls-1" transform="translate(88.28 45.44) rotate(28.49)">c</text><text class="cls-1" transform="translate(93.6 48.34) rotate(33.81)">y</text><text class="cls-1" transform="matrix(0.78, 0.62, -0.62, 0.78, 98.05, 51.33)">c</text><text class="cls-1" transform="translate(102.8 55.21) rotate(43.1)">l</text><text class="cls-1" transform="translate(104.84 57.02) rotate(47.24)">e</text><text class="cls-1" transform="translate(109.02 61.51) rotate(53.23)">d</text><circle class="cls-2" cx="62.95" cy="100.9" r="57.74"/><path class="cls-3" d="M29.65,80.47,50.3,91.8,62.66,69.4S57,53.86,44.35,59a6.47,6.47,0,0,0-3.08,2.62Z"/><path class="cls-4" d="M51.45,57.94l26.12.89s5.74-.37,9.82,9.57l2.17,4,8.15-5.16L86.37,87.77,61.21,89,71,83.62,62.66,69.4"/><path class="cls-5" d="M97.92,85.16,77.53,96.93l13.22,21.91s16.42,3.14,18.43-10.24a6.29,6.29,0,0,0-.72-3.94Z"/><path class="cls-6" d="M106.46,115.16,92.37,136.89S89.77,142,79,140.36l-4.61-.21.34,9.55-12.1-20.08,11.73-22-.25,11,16.61.2"/><path class="cls-7" d="M59.23,140.73l-.85-23.3-25.81,1.12S22,131.34,33,139.42a6.56,6.56,0,0,0,3.85,1.25Z"/><path class="cls-8" d="M28.42,134,15.7,111.41s-3.29-4.65,3.22-13.24l2.38-3.91L12.61,90l23.65-1,14.09,20.61-9.73-5.43-8,14.34"/><text class="cls-9" transform="translate(54.77 109.76)">1%</text></g></g></svg>