<svg xmlns="http://www.w3.org/2000/svg" viewBox="0 0 238.68 46.67"><defs><style>.cls-1{font-size:18px;font-family:Quasimoda-Regular, Quasimoda;}</style></defs><g id="Layer_2" data-name="Layer 2"><g id="Screen5"><text class="cls-1" transform="translate(3.1 20.29) rotate(-5.2)">Q</text><text class="cls-1" transform="translate(18.62 18.89) rotate(-4.37)">U</text><text class="cls-1" transform="translate(31.6 17.9) rotate(-3.72)">A</text><text class="cls-1" transform="translate(43.54 17.13) rotate(-3.16)">L</text><text class="cls-1" transform="translate(52.8 16.63) rotate(-2.78)">I</text><text class="cls-1" transform="translate(57.44 16.4) rotate(-2.36)">T</text><text class="cls-1" transform="translate(68.01 15.96) rotate(-1.76)">Y</text><text class="cls-1" transform="translate(78.43 15.65) rotate(-1.28)"> </text><text class="cls-1" transform="matrix(1, -0.01, 0.01, 1, 83.79, 15.5)">O</text><text class="cls-1" transform="translate(99.06 15.35) rotate(0.34)">V</text><text class="cls-1" transform="translate(110.7 15.42) rotate(1.2)">E</text><text class="cls-1" transform="translate(120.88 15.63) rotate(2.12)">R</text><text class="cls-1" transform="translate(131.64 16.05) rotate(2.91)"> </text><text class="cls-1" transform="matrix(1, 0.07, -0.07, 1, 136.98, 16.26)">Q</text><text class="cls-1" transform="translate(152.48 17.37) rotate(5.91)">U</text><text class="cls-1" transform="matrix(0.99, 0.14, -0.14, 0.99, 165.36, 18.71)">A</text><text class="cls-1" transform="matrix(0.98, 0.18, -0.18, 0.98, 177.1, 20.3)">N</text><text class="cls-1" transform="translate(190.66 22.84) rotate(13.75)">T</text><text class="cls-1" transform="translate(200.85 25.4) rotate(16.32)">I</text><text class="cls-1" transform="matrix(0.94, 0.33, -0.33, 0.94, 205.19, 26.57)">T</text><text class="cls-1" transform="translate(214.94 29.98) rotate(25.34)">Y</text></g></g></svg>