<svg xmlns="http://www.w3.org/2000/svg" xmlns:xlink="http://www.w3.org/1999/xlink" viewBox="0 0 44.27 114.88"><defs><style>.cls-1{fill:#dd8b5e;}.cls-2{fill:url(#linear-gradient);}.cls-3{fill:url(#linear-gradient-2);}.cls-4{fill:url(#linear-gradient-3);}.cls-5{fill:url(#linear-gradient-4);}.cls-6{fill:#021e5b;}.cls-7{fill:#fff;}</style><linearGradient id="linear-gradient" x1="702.32" y1="33.02" x2="741.55" y2="33.02" gradientTransform="matrix(-1, 0, 0, 1, 742.16, 0)" gradientUnits="userSpaceOnUse"><stop offset="0" stop-color="#021e5b"/><stop offset="1" stop-color="#172a5e"/></linearGradient><linearGradient id="linear-gradient-2" x1="702.32" y1="75.29" x2="729.85" y2="75.29" gradientTransform="matrix(-1, 0, 0, 1, 742.16, 0)" gradientUnits="userSpaceOnUse"><stop offset="0" stop-color="#d64c4c"/><stop offset="1" stop-color="#172a5e"/></linearGradient><linearGradient id="linear-gradient-3" x1="723.74" y1="107.27" x2="738.99" y2="107.27" xlink:href="#linear-gradient"/><linearGradient id="linear-gradient-4" x1="712.48" y1="75.5" x2="729.16" y2="75.5" xlink:href="#linear-gradient-2"/></defs><g id="Layer_2" data-name="Layer 2"><g id="Screen3"><g id="model4"><ellipse class="cls-1" cx="23.17" cy="7.88" rx="4.18" ry="5.36"/><polygon class="cls-1" points="25.07 12.85 25.61 15.71 22.55 15.71 23.16 13.44 25.07 12.85"/><path d="M20.33,4.33S22.46,2.07,24.08,3s3.83,3.9,3.27,6.65S29.84,4.9,28.5,2.91,26,.25,24.58,0,18.78.72,19,3.67,20.33,4.33,20.33,4.33Z"/><path class="cls-2" d="M25.61,14.93s-1.16,1.6-3.05,0-4.85,1.46-4.85,1.46S12.89,19.57,8.39,30,3,41.27,3,41.27.5,43,.61,45.54,5.32,51,6.42,50.47s9.86-23.78,9.86-23.78L11.79,49.16s-1.21,2.3,3.51,2.41,19.94-1.43,16-6.36a34.87,34.87,0,0,1-.54-5.81c.11-2.08-1.91-11.72-1.91-11.72l5.52,18,5.48-1.86L31.22,17.61a3.89,3.89,0,0,0-3.71-2.68Z"/><path class="cls-1" d="M37.92,44.44s2.1,5,2.35,7.52-2.35,3.79-2.35,3.79l-.6-7.58L36,45.09Z"/><path class="cls-1" d="M4.65,50.1S3,56,1.9,56.56A5.92,5.92,0,0,0,0,58.35V54.22l3.22-5Z"/><path class="cls-3" d="M19.2,51.42l-6.89-.51L16.1,71.47s14.61,28.32,18,28.2a9.43,9.43,0,0,0,5.77-2.59L27.08,65.35Z"/><path class="cls-4" d="M17.66,102.69s-5.18.18-7.43,2A11.88,11.88,0,0,1,5.39,107L3.17,110.5l2.56,1.35,12.68-3.76Z"/><path class="cls-5" d="M29.68,49.21s-7,45.28-9.45,50.84A6.72,6.72,0,0,1,13,101.22s2.33-27.94,3.11-29.75,3.1-20,3.1-20Z"/><polygon class="cls-1" points="38.94 97.84 40.27 99.67 38.18 101.8 36.83 99.04 38.94 97.84"/><polygon class="cls-1" points="17.11 101.32 16.92 103.58 13.94 103.81 14.74 100.84 17.11 101.32"/><path class="cls-6" d="M40.28,99.67s-3.91,3.41-4.48,6.26a11.78,11.78,0,0,1-2.28,4.86l.47,4.09,2.84-.57,7.44-11Z"/><path class="cls-6" d="M27.51,14.93s-3,7-3.43,11.24,1.45,9.26,0,10-4.58-.5-5.11,1.4.27,4.68-1,5.77-5.35,1.78-5.35,1.78l-.91,5s-2.61,1.24,7.51,1.32,12.57-4,12.57-4L28.84,27.68Z"/><path class="cls-7" d="M26.81,3.75a2.63,2.63,0,0,1-2.9,2.92s2.87-.5,2.9,2.86A2.52,2.52,0,0,1,29.7,6.67S27.4,7.25,26.81,3.75Z"/></g></g></g></svg>