<svg xmlns="http://www.w3.org/2000/svg" viewBox="0 0 106.14 180.95"><defs><style>.cls-1{fill:#dd8b5e;}.cls-2{fill:#5d6887;}.cls-3{fill:#aaa;}.cls-4{fill:#172a5e;}.cls-5{fill:#db5953;}.cls-6{fill:#384a82;}.cls-7{fill:#d64c4c;}.cls-8{fill:#041f5b;}</style></defs><g id="Layer_2" data-name="Layer 2"><g id="Screen3"><g id="model2"><ellipse class="cls-1" cx="51.38" cy="15.2" rx="6.18" ry="4.58" transform="translate(22.48 60.32) rotate(-73.85)"/><path class="cls-1" d="M51.38,21.19s-.32,6.58-3.52,8.92,4.26,1.07,7.88-6.39L54,19.64Z"/><path class="cls-2" d="M55.19,6A9.2,9.2,0,0,0,48.44,8c-2.95,2.61,2.42,2.26,2.42,2.26s4-.67,4.33,2a16.57,16.57,0,0,1,0,4.44,21.38,21.38,0,0,0,2.93-5.43C58.85,8.9,55.19,6,55.19,6Z"/><rect class="cls-3" x="56.16" y="5.11" width="2.47" height="4.51" rx="1.24" transform="translate(6.29 34.51) rotate(-35.29)"/><path class="cls-2" d="M58.75,4.35c3.67-3.12,14.1-9.88,23.3,4.42a2.05,2.05,0,0,0,.36.42c1.13,1,6.72,7-1.27,26.47-1.73,4.21-.32,9.44,2.4,13.09,2.24,3,1,6.72.42,7.28-6.44,5.75-4.28,5.4-11.45,5.63C72,61.68,70.38,60,70,59.57a20.12,20.12,0,0,1-5.87-13.31,156.88,156.88,0,0,1,.61-21.9,2.28,2.28,0,0,0-.12-.9L58.66,7.55a1.89,1.89,0,0,0-.24-.47h0A2,2,0,0,1,58.75,4.35Z"/><polygon class="cls-1" points="16.77 154.1 13.91 162.98 16.77 165.73 23.06 155.77 16.77 154.1"/><polygon class="cls-1" points="80.82 150.23 86.23 157.83 90.15 157.18 85.92 146.19 80.82 150.23"/><path class="cls-4" d="M35.92,67.69s-6.38,46-10,53.88-13.54,30.89-13.54,30.89S22.9,157.06,29,156a17.23,17.23,0,0,1,11.23,1.78c1,.51-3.06-40.34-3.06-40.34L50,86.33,41.2,67.63Z"/><path class="cls-4" d="M41.2,67.63s15.91,36.58,18,48.83,9.19,22.21,9.19,22.21S80.6,155,80.09,157.83s3.32-9.45,11-9.71,15.07-12.25,15.07-12.25-14.3-12.26-22.22-14.81S71.7,105,71.7,105L57.39,69Z"/><path class="cls-5" d="M55.74,23.72s7.63,1.53,10.59,5.8c0,0,.15,15.23,3.7,15.08s-8,3.2-13.6,0c0,0,.89,23.47,1,24.38s-5.84-1.37-16.19,0-6.65-3.5-6.65-3.5,8-33.71,12-34.07"/><path class="cls-1" d="M57.89,44.61s-1.6,27.29,1,33.25A14.71,14.71,0,0,1,60,81.28c.83,4.47,2.54,13.47,3,13.57s.85,3.13,1.85,2.28.71-6,.71-6.39-2.42-8.38-2.42-8.38-.5-12.43-1.63-14.11.64-16.12,1.35-18.81a21.07,21.07,0,0,0,.71-4.83Z"/><path class="cls-6" d="M13.91,163s-.06,0,4.57,2.75l-4.9,9.17-2.88,6V177s-3.52,4.59-5.5,3.83S0,175.52,0,175.52s.61-.92,3.67-.16S13.91,163,13.91,163Z"/><path class="cls-6" d="M84.69,157.68s0,0,4.78-2.37l5.08,9.08L98,170,94.81,168s2,5.44.25,6.7-7.31,1.49-7.31,1.49-.44-1,1.85-3.17S84.69,157.68,84.69,157.68Z"/><path class="cls-7" d="M45.13,32.27S51.36,41.18,48.84,49,47.31,60.31,50,60.31s6.86,3.15,6.86,3.15L57.39,69s-10.92-.33-16.19,0c-8.68.55-9,1.64-5.57-7.88,3.47-9.77,4.55-16.53,5.57-19.41S45.13,32.27,45.13,32.27Z"/><polygon class="cls-8" points="35.69 69.33 41.2 68.98 49.46 87.57 39.15 112.73 33.21 85.9 35.69 69.33"/></g></g></g></svg>