<svg xmlns="http://www.w3.org/2000/svg" xmlns:xlink="http://www.w3.org/1999/xlink" viewBox="0 0 92.23 61.59"><defs><style>.cls-1{fill:none;}.cls-2{font-size:27.61px;fill:#fff;font-family:BrandonGrotesque-Regular, Brandon Grotesque;}.cls-3{fill:#c15959;}.cls-4{fill:#bf3636;}.cls-5{isolation:isolate;}.cls-6{clip-path:url(#clip-path);}.cls-7{clip-path:url(#clip-path-2);}.cls-8{clip-path:url(#clip-path-3);}.cls-9{clip-path:url(#clip-path-4);}</style><clipPath id="clip-path"><polygon class="cls-1" points="30.83 25.61 49.82 15.23 61.39 27.94 42.4 38.32 30.83 25.61"/></clipPath><clipPath id="clip-path-2"><polygon class="cls-1" points="56.87 37.25 69.16 30.54 76.64 38.76 64.35 45.48 56.87 37.25"/></clipPath><clipPath id="clip-path-3"><polygon class="cls-1" points="17.72 14.78 30.01 8.07 37.49 16.29 25.2 23 17.72 14.78"/></clipPath><clipPath id="clip-path-4"><polygon class="cls-1" points="38.66 29.27 48.12 21.14 52.99 23.8 43.53 31.93 38.66 29.27"/></clipPath></defs><g id="Layer_2" data-name="Layer 2"><g id="Screen_2" data-name="Screen 2"><text class="cls-2" transform="translate(39.37 43.4)">$</text><polygon class="cls-3" points="30.12 0 0 17.11 61.36 53.55 92.23 36.45 30.12 0"/><polygon class="cls-4" points="0 17.11 0.81 24.5 61.33 61.59 92.23 42.91 92.23 36.45 61.36 53.55 0 17.11"/><g class="cls-5"><g class="cls-6"><path class="cls-4" d="M55.61,21.59c-3.2-3.52-10-4-15.29-1.17s-6.9,8-3.7,11.54,10,4,15.27,1.17,6.91-8,3.72-11.54"/></g></g><g class="cls-5"><g class="cls-7"><path class="cls-4" d="M72.9,34.65C70.83,32.38,66.4,32,63,33.9s-4.47,5.2-2.4,7.47,6.48,2.61,9.88.75,4.47-5.2,2.41-7.47"/></g></g><g class="cls-5"><g class="cls-8"><path class="cls-4" d="M33.75,12.18c-2.07-2.27-6.49-2.61-9.88-.75s-4.48,5.19-2.41,7.47,6.49,2.6,9.89.75,4.47-5.2,2.4-7.47"/></g></g><g class="cls-5"><g class="cls-9"><path d="M43.31,29l2.56-2.2c.47.82.52,1.41-.08,1.92a2.52,2.52,0,0,1-2.48.28m3.15-3.39c-.47-.75-.54-1.36.11-1.92A2.49,2.49,0,0,1,49,23.39L46.46,25.6m4.12-3.12-.09-.05a.39.39,0,0,0-.41.06l-.34.29a4,4,0,0,0-4,.45,3,3,0,0,0-.36.34c-.81.91-.51,1.74.23,2.77l-2.76,2.37A2.18,2.18,0,0,1,42,27.16.2.2,0,0,0,42,27c-.16-.08-.48,0-.78.09s-.3.23-.29.34a2.66,2.66,0,0,0,1.24,1.87l-1.1,1a.17.17,0,0,0,0,.3.4.4,0,0,0,.44,0l1.1-.95a4.12,4.12,0,0,0,4.13-.42c1.16-1,.83-1.93,0-3.15l2.76-2.36a2.82,2.82,0,0,1,.76,1.07.24.24,0,0,0,.12.14c.14.08.36,0,.7-.1s.33-.29.3-.35a3,3,0,0,0-1.15-1.38l.33-.29c.12-.1.12-.22,0-.28"/></g></g></g></g></svg>