<svg xmlns="http://www.w3.org/2000/svg" viewBox="0 0 107.5 188.63"><defs><style>.cls-1{fill:#dd675b;}.cls-2{fill:#172a5e;}.cls-3{fill:#fff;}.cls-4{fill:none;stroke:#dd675b;stroke-miterlimit:10;}.cls-5{fill:#db3f37;}</style></defs><g id="Layer_2" data-name="Layer 2"><g id="Screen5"><ellipse class="cls-1" cx="53.75" cy="174.8" rx="52.04" ry="13.83"/><path class="cls-2" d="M0,51.51S3.28,69.09,18.75,73.77c0,0,3.75,5.16,3.28,23.91s-4.22,68.92-4.22,68.92,35.94,22,72.9-1.51c0,0-8.2,7.13-7.26-86.63,0,0,26.25-15.47,23.9-26.95Z"/><ellipse class="cls-1" cx="53.68" cy="51.51" rx="53.68" ry="8.2"/><ellipse class="cls-3" cx="53.68" cy="51.51" rx="18.99" ry="3.28"/><path class="cls-4" d="M18.75,73.77S77,95.46,83.38,88.61s-61.44.51-61.44.51l61.44,9.43L22,97.68l61.45,10.83-62,2.37L83.62,116l-62.75,5.55S71,135.89,83.8,125.94s-53.15,19.29-60.62,9.95,57.39,2.49,61.37,1.87S45,157.05,30,149.58s36.53,3.53,46.05,1.68S10.16,157.42,18.23,161s54.19,12.75,67.22,2.86"/><rect class="cls-5" x="65.39" y="-4.54" width="2.49" height="164.29" rx="1.24" transform="translate(29.37 -17.65) rotate(19.29)"/></g></g></svg>