<svg xmlns="http://www.w3.org/2000/svg" xmlns:xlink="http://www.w3.org/1999/xlink" viewBox="0 0 1137.15 629.78"><defs><style>.cls-1,.cls-13{fill:none;}.cls-2{opacity:0.65;fill:url(#linear-gradient);}.cls-3{isolation:isolate;}.cls-4{clip-path:url(#clip-path);}.cls-5{clip-path:url(#clip-path-2);}.cls-6{clip-path:url(#clip-path-3);}.cls-7{fill:#243160;}.cls-8{fill:#10245e;}.cls-9{fill:#071f5b;}.cls-10{fill:#001e59;}.cls-11,.cls-12,.cls-13,.cls-14{stroke:#000;stroke-miterlimit:10;}.cls-12,.cls-13{stroke-width:3px;}.cls-14{stroke-width:4px;}.cls-15{fill:#172a5e;}.cls-16{fill:#fff;}.cls-17{clip-path:url(#clip-path-4);}.cls-18{fill:#a0a0a0;}.cls-19{clip-path:url(#clip-path-5);}.cls-20{clip-path:url(#clip-path-6);}.cls-21{clip-path:url(#clip-path-7);}.cls-22{clip-path:url(#clip-path-8);}.cls-23{clip-path:url(#clip-path-9);}.cls-24{clip-path:url(#clip-path-10);}.cls-25{clip-path:url(#clip-path-11);}</style><linearGradient id="linear-gradient" x1="68.22" y1="-208.01" x2="1283.93" y2="-208.01" gradientTransform="matrix(-0.73, 0.6, -0.64, -0.77, 940.46, -233.45)" gradientUnits="userSpaceOnUse"><stop offset="0" stop-color="#f1f1f1"/><stop offset="1" stop-color="#172a5e"/></linearGradient><clipPath id="clip-path"><polygon class="cls-1" points="117.47 509.1 111.02 264 288.75 245.7 295.2 490.8 117.47 509.1"/></clipPath><clipPath id="clip-path-2"><polyline class="cls-1" points="137.83 507 113.01 308.18 269.84 271.17 294.65 470 137.83 507"/></clipPath><clipPath id="clip-path-3"><polyline class="cls-1" points="135.55 488.69 124.97 305.36 272.12 289.48 282.7 472.82 135.55 488.69"/></clipPath><clipPath id="clip-path-4"><polygon class="cls-1" points="232.03 202.24 231.72 175 254.87 176.05 255.18 203.28 232.03 202.24"/></clipPath><clipPath id="clip-path-5"><polygon class="cls-1" points="250.22 207.84 249.96 184.22 270.17 185.13 270.44 208.75 250.22 207.84"/></clipPath><clipPath id="clip-path-6"><polygon class="cls-1" points="245.36 215.55 245.1 191.94 265.31 192.85 265.58 216.47 245.36 215.55"/></clipPath><clipPath id="clip-path-7"><polygon class="cls-1" points="263.48 215.28 263.27 197.09 278.68 197.79 278.88 215.98 263.48 215.28"/></clipPath><clipPath id="clip-path-8"><polygon class="cls-1" points="272.34 220.92 272.17 205.91 285.49 206.51 285.66 221.53 272.34 220.92"/></clipPath><clipPath id="clip-path-9"><polygon class="cls-1" points="235.91 296.56 235.22 235.56 293.04 238.17 293.74 299.17 235.91 296.56"/></clipPath><clipPath id="clip-path-10"><polygon class="cls-1" points="223.26 292.26 222.69 241.64 240.97 242.47 241.55 293.09 223.26 292.26"/></clipPath><clipPath id="clip-path-11"><polygon class="cls-1" points="274.37 240.15 274.18 223.56 291.34 224.33 291.53 240.93 274.37 240.15"/></clipPath></defs><g id="Layer_2" data-name="Layer 2"><g id="Screen3"><path class="cls-2" d="M146.75,483C310.91,468.66,257.32,35.59,400.52,28.13c181.05-9.42,145.42,144.05,317.18,14.1,75.7-57.27,338-52.48,358.24-8.49s70,468.91-154.54,424.54c-235.75-46.58-153.54,137-282.17,152C568,618.5,495.7,494.74,400.14,586.15c-38.58,36.91-130.87,2-149.19,10.25C149.82,642.14,62.67,652.57,15.1,551.53S38,492.5,146.75,483Z"/><polygon points="1078.21 403.81 76.01 282.91 169.55 282.13 1137.15 357.57 1078.21 403.81"/><polygon points="1074.78 366.58 136.09 407.04 66.41 499.28 1109.71 394.73 1074.78 366.58"/><g id="bag"><g class="cls-3"><g class="cls-4"><g class="cls-5"><g class="cls-6"><path class="cls-7" d="M144.22,487.71v0h0l.19-.06-.23,0m121.56-197.3-43.94,9c.74,6.67.81,11.89.81,12.18l-3.54.3c0-2.87-.25-7.12-.76-11.76L195,305c-1.49,6.83-2.63,10.92-4.42,12.66l-2.22-2.93c.9-.87,1.92-4.71,2.88-9l-60.53,12.43L148,485.62l.3.44c1.21-14.59,12.58-138.25,52.72-154.23A42.23,42.23,0,0,1,212.24,329c49.89-5.14,63.87,100.28,66,119.5l3-.87v0L265.78,290.41m0-.24h-.05l-.25.05.31,0v-.1"/></g></g><path class="cls-8" d="M148.13,487.43l0,0v0h0m-23-174.2,9.11,150.9.63-.79,6.33,12.37,6.78,9.91L130.68,318.15l-.12,0-5.45-4.95"/><polyline class="cls-9" points="116.28 311.3 116.83 484.86 123.57 477.52 134.22 464.13 125.11 313.23 125.05 313.18 116.28 311.3"/><path class="cls-9" d="M149.05,487.22l-.74.2.84-.06-.1-.14m-14.2-23.88-.63.79-10.65,13.39-6.74,7.34,17,3.58,10.43-.73.23,0,3.68-.26h0c0-.12,0-.59.11-1.37l-.3-.44-6.78-9.91-6.33-12.37"/><path class="cls-10" d="M193.79,293.75l-24.94,5.65a11.83,11.83,0,0,1-2.48,4.88l-2.22-2.93a3.28,3.28,0,0,0,.63-1l-48.5,11,8.77,1.88.06.05,5.45,4.95.12,0,60.53-12.43c.42-1.86.83-3.8,1.21-5.6.44-2.1.89-4.24,1.37-6.37m22.64-5.12-18.18,4.11c.2,3.22.23,5.35.23,5.53l-2.12.18c-.18.8-.34,1.58-.5,2.35-.32,1.48-.61,2.86-.89,4.15l23.38-4.8a98.86,98.86,0,0,0-1.92-11.52m23.31-5.28L220,287.83c.34,1.5.66,3.1.94,4.79.4,2.34.71,4.65,1,6.81l43.94-9,.42-.09-.44-.05-.31,0a98.32,98.32,0,0,1-25.71-6.88"/><path class="cls-10" d="M198.11,290.73c-.64,2.59-1.22,5.23-1.75,7.72l2.12-.18c0-.18,0-2.31-.23-5.53,0-.63-.09-1.3-.14-2M182.4,256.65a6.64,6.64,0,0,0-3.24,1.3c-5.7,4.1-8.46,17.24-10.91,28.82-1.05,5-2.32,11-3.47,13.55a3.28,3.28,0,0,1-.63,1l2.22,2.93a11.83,11.83,0,0,0,2.48-4.88c.9-2.85,1.76-6.8,2.84-11.94,2.05-9.73,4.85-23,9.24-26.21a3.33,3.33,0,0,1,1.58-.64,3.56,3.56,0,0,1,1.16.1c7,1.81,9.9,18.17,10.87,29.82.76-3.15,1.59-6.2,2.55-8.94q-.17-1.14-.36-2.31c-2.29-13.42-6.34-21-12.07-22.44a6.48,6.48,0,0,0-2.26-.19"/><path class="cls-10" d="M206.56,270a6.73,6.73,0,0,0-3.23,1.29c-2.61,1.88-4.61,5.66-6.24,10.31-1,2.74-1.79,5.79-2.55,8.94-.26,1.06-.51,2.14-.75,3.22-.48,2.13-.93,4.27-1.37,6.37-.38,1.8-.79,3.74-1.21,5.6-1,4.25-2,8.09-2.88,9l2.22,2.93c1.79-1.74,2.93-5.83,4.42-12.66.28-1.29.57-2.67.89-4.15.16-.77.32-1.55.5-2.35.53-2.49,1.11-5.13,1.75-7.72,1.77-7.19,4-14,7-16.14a3.33,3.33,0,0,1,1.58-.64,3.15,3.15,0,0,1,1.17.1c4.16,1.07,6.86,7.27,8.58,14.58a98.86,98.86,0,0,1,1.92,11.52c.51,4.64.73,8.89.76,11.76l3.54-.3c0-.29-.07-5.51-.81-12.18-.24-2.16-.55-4.47-1-6.81-.28-1.69-.6-3.29-.94-4.79-2.39-10.44-6.12-16.37-11.11-17.65a6.61,6.61,0,0,0-2.28-.19"/><path d="M212.24,329A42.23,42.23,0,0,0,201,331.83c-40.14,16-51.51,139.64-52.72,154.23-.06.78-.1,1.25-.11,1.37v0l.16-.05.74-.2,129.5-35.77s-.09-1.06-.3-3c-2.14-19.22-16.12-124.64-66-119.5"/></g></g></g><path class="cls-11" d="M692.54,313.84l-.23-21.79h-61.4l.18-23.44c-1.26-6.1,4.63-8,4.63-8s54.06.67,63.53,0,8.41,7.16,8.41,7.16v46.07H631.09s-1.68,13.88,2.95,14.3c4,.36,53,1,67,1.21,2.37,0,6.48-2.29,7.34-4.5a14.13,14.13,0,0,0-.68-11"/><path class="cls-11" d="M653.3,291.27s3.38,4.13-10.48,4.8-11.91-4-11.91-4"/><line class="cls-12" x1="678.81" y1="292.05" x2="678.81" y2="313.84"/><line class="cls-12" x1="642.82" y1="296.07" x2="642.82" y2="308.92"/><polyline class="cls-13" points="648.25 295.51 648.25 301.65 642.82 301.65"/><path class="cls-14" d="M707.66,267.77s7.15-.93,5.46,9.71c0,0,1.18,7.95-1.18,8.79a11.06,11.06,0,0,1-4.28.68Z"/><line class="cls-12" x1="648.25" y1="250.61" x2="648.25" y2="260.58"/><polyline class="cls-11" points="688.11 261.67 688.11 253.2 691.49 248.45 696.9 248.45 700.11 253.2 700.11 262.53"/><rect class="cls-15" x="482.7" y="360.77" width="68.12" height="48.99" rx="4.65" transform="translate(-22.79 32.62) rotate(-3.54)"/><path class="cls-16" d="M491.43,407.09a4.16,4.16,0,0,1-4.14-3.89l-2-32.1a4.16,4.16,0,0,1,3.88-4.4l52.64-3.25h.26a4.15,4.15,0,0,1,4.14,3.9l2,32.09a4.16,4.16,0,0,1-3.89,4.4l-52.64,3.25Z"/><path d="M542.09,363.94a3.66,3.66,0,0,1,3.64,3.43l2,32.09a3.66,3.66,0,0,1-3.42,3.87l-52.64,3.26h-.23a3.65,3.65,0,0,1-3.64-3.42l-2-32.1a3.66,3.66,0,0,1,3.42-3.87L541.86,364h.23m0-1h-.29l-52.64,3.26a4.65,4.65,0,0,0-4.35,4.93l2,32.09a4.66,4.66,0,0,0,4.64,4.36h.29l52.64-3.25a4.68,4.68,0,0,0,4.36-4.93l-2-32.09a4.67,4.67,0,0,0-4.64-4.37Z"/><path class="cls-15" d="M489,411.52l-15.56,20.39s1.08,6.64,6.06,5.63,83.73-5.13,83.73-5.13a5.82,5.82,0,0,0,1.93-6.88l-17.23-17.65Z"/><polygon class="cls-16" points="493.68 414.41 489.95 419.24 546.21 415.76 541.24 411.47 493.68 414.41"/><polygon class="cls-16" points="511.91 421.06 511.02 425.7 527.43 424.69 525.78 420.2 511.91 421.06"/><g class="cls-3"><g class="cls-17"><path class="cls-18" d="M244.27,175.57c-4.06-.18-8.15,2.08-10.59,6.36-3.61,6.35-2.17,14.73,3.22,18.71a10.39,10.39,0,0,0,5.73,2.08c4.06.18,8.16-2.09,10.59-6.35,3.61-6.36,2.17-14.74-3.22-18.73a10.35,10.35,0,0,0-5.73-2.07"/></g></g><g class="cls-3"><g class="cls-19"><path class="cls-18" d="M260.73,184.71a10.08,10.08,0,0,0-9.13,5.42c-3.12,5.48-1.8,12.77,3,16.28a9.28,9.28,0,0,0,5.12,1.86,10.11,10.11,0,0,0,9.13-5.43c3.12-5.48,1.8-12.77-2.95-16.28a9.29,9.29,0,0,0-5.12-1.85"/></g></g><g class="cls-3"><g class="cls-20"><path class="cls-18" d="M255.87,192.43a10.1,10.1,0,0,0-9.13,5.42c-3.12,5.48-1.8,12.77,2.95,16.27a9.23,9.23,0,0,0,5.12,1.86,10.08,10.08,0,0,0,9.13-5.41c3.12-5.48,1.8-12.78-2.95-16.29a9.29,9.29,0,0,0-5.12-1.85"/></g></g><g class="cls-3"><g class="cls-21"><path class="cls-18" d="M271.7,197.47a7.92,7.92,0,0,0-7.1,4.28c-2.41,4.26-1.48,9.85,2.09,12.49a6.81,6.81,0,0,0,3.76,1.36,7.92,7.92,0,0,0,7.1-4.28c2.42-4.25,1.48-9.85-2.09-12.48a6.75,6.75,0,0,0-3.76-1.37"/></g></g><g class="cls-3"><g class="cls-22"><path class="cls-18" d="M278.92,206.22a6.17,6.17,0,0,0-5.67,3.25,8.23,8.23,0,0,0,2.23,10.44,6.58,6.58,0,0,0,3.6,1.32,6.17,6.17,0,0,0,5.67-3.25,8.23,8.23,0,0,0-2.23-10.44,6.45,6.45,0,0,0-3.6-1.32"/></g></g><g class="cls-3"><g class="cls-23"><polyline points="293.04 238.17 235.22 235.56 235.91 296.56 293.74 299.17 293.04 238.17"/></g></g><g class="cls-3"><g class="cls-24"><polyline points="240.97 242.47 222.69 241.64 223.26 292.26 241.55 293.09 240.97 242.47"/></g></g><g class="cls-3"><g class="cls-25"><polyline points="291.34 224.33 274.18 223.56 274.37 240.15 291.53 240.93 291.34 224.33"/></g></g><rect class="cls-16" x="249.88" y="251.05" width="6.85" height="10.7"/><rect class="cls-16" x="261.05" y="251.05" width="6.85" height="10.7"/><rect class="cls-16" x="271.57" y="251.05" width="6.85" height="10.7"/></g></g></svg>