<svg xmlns="http://www.w3.org/2000/svg" viewBox="0 0 265.58 48.58"><defs><style>.cls-1{font-size:18px;font-family:Quasimoda-Regular, Quasimoda;}</style></defs><g id="Layer_2" data-name="Layer 2"><g id="Screen5"><text class="cls-1" transform="matrix(0.99, 0.14, -0.14, 0.99, 16.06, 15.21)">R</text><text class="cls-1" transform="matrix(0.99, 0.14, -0.14, 0.99, 26.74, 16.76)">E</text><text class="cls-1" transform="translate(36.88 18.22) rotate(8.13)">P</text><text class="cls-1" transform="translate(46.77 19.64) rotate(8.05)">U</text><text class="cls-1" transform="matrix(0.99, 0.14, -0.14, 0.99, 59.72, 21.47)">R</text><text class="cls-1" transform="translate(70.42 22.97) rotate(7.9)">P</text><text class="cls-1" transform="translate(80.29 24.34) rotate(7.81)">O</text><text class="cls-1" transform="translate(95.53 26.43) rotate(7.71)">S</text><text class="cls-1" transform="translate(105.64 27.8) rotate(7.62)">E</text><text class="cls-1" transform="matrix(0.99, 0.13, -0.13, 0.99, 115.8, 29.15)"> </text><text class="cls-1" transform="translate(121.14 29.87) rotate(7.45)">O</text><text class="cls-1" transform="translate(136.52 31.87) rotate(7.31)">L</text><text class="cls-1" transform="matrix(0.99, 0.12, -0.12, 0.99, 145.74, 33.06)">D</text><text class="cls-1" transform="translate(158.91 34.71) rotate(7.03)"> </text><text class="cls-1" transform="matrix(0.99, 0.12, -0.12, 0.99, 164.28, 35.38)">C</text><text class="cls-1" transform="matrix(0.99, 0.12, -0.12, 0.99, 178.43, 37.08)">L</text><text class="cls-1" transform="translate(187.45 38.14) rotate(6.35)">O</text><text class="cls-1" transform="matrix(0.99, 0.1, -0.1, 0.99, 202.87, 39.85)">T</text><text class="cls-1" transform="translate(213.41 40.95) rotate(5.43)">H</text><text class="cls-1" transform="matrix(1, 0.08, -0.08, 1, 226.54, 42.2)">E</text><text class="cls-1" transform="translate(236.62 43.04) rotate(3.66)">S</text></g></g></svg>