<svg xmlns="http://www.w3.org/2000/svg" xmlns:xlink="http://www.w3.org/1999/xlink" viewBox="0 0 411.69 353.83">
  <defs>
    <style>
      .cls-1 {
        fill: url(#linear-gradient);
      }

      .cls-2 {
        fill: url(#linear-gradient-2);
      }

      .cls-3 {
        fill: url(#linear-gradient-3);
      }

      .cls-4 {
        fill: url(#linear-gradient-4);
      }
    </style>
    <linearGradient id="linear-gradient" x1="405.52" y1="112.81" x2="73.88" y2="270.05" gradientUnits="userSpaceOnUse">
      <stop offset="0" stop-color="gray"/>
      <stop offset="0.27" stop-color="#4d4d4d"/>
      <stop offset="0.64"/>
    </linearGradient>
    <linearGradient id="linear-gradient-2" x1="358.4" y1="54.55" x2="26.76" y2="211.79" xlink:href="#linear-gradient"/>
    <linearGradient id="linear-gradient-3" x1="372.92" y1="223.93" x2="144.37" y2="332.29" xlink:href="#linear-gradient"/>
    <linearGradient id="linear-gradient-4" x1="257.27" y1="338.07" x2="179.96" y2="374.73" gradientTransform="translate(37.65 -42.5) rotate(3.86)" xlink:href="#linear-gradient"/>
  </defs>
  <g id="Layer_2" data-name="Layer 2">
    <g id="Screen_1" data-name="Screen 1">
      <g id="factory">
        <g>
          <path class="cls-1" d="M47.12,301.31S62,171.86,219.66,169.22,409,58.26,409,58.26s18.5,63.4-42.27,121.52C329,215.89,263.92,218.29,220.71,221.21c-33,2.22-71.38,10-100.35,25.91Z"/>
          <path class="cls-2" d="M0,243.05S14.85,113.6,172.54,111,361.93,0,361.93,0s18.49,63.4-42.27,121.52C281.9,157.63,216.8,160,173.59,162.94c-33,2.23-71.37,10-100.34,25.91Z"/>
          <path class="cls-3" d="M125.92,353.83s10.24-89.21,118.91-91,130.52-76.46,130.52-76.46,12.74,43.69-29.13,83.74c-26,24.89-70.88,26.55-100.67,28.55-22.72,1.53-49.18,6.9-69.15,17.86Z"/>
          <path class="cls-4" d="M185.25,350.34s5.49-29.88,42.21-28,45.79-22.84,45.79-22.84,3.31,15-11.74,27.6c-9.35,7.81-24.53,7.35-34.63,7.34-7.7,0-16.75,1.21-23.74,4.46Z"/>
        </g>
      </g>
    </g>
  </g>
</svg>
