<svg xmlns="http://www.w3.org/2000/svg" viewBox="0 0 222.49 31.63"><defs><style>.cls-1{font-size:18px;font-family:Quasimoda-Regular, Quasimoda;}</style></defs><g id="Layer_2" data-name="Layer 2"><g id="Screen5"><text class="cls-1" transform="matrix(0.99, 0.12, -0.12, 0.99, 5.34, 15.26)">S</text><text class="cls-1" transform="translate(15.43 16.5) rotate(6.58)">H</text><text class="cls-1" transform="matrix(0.99, 0.11, -0.11, 0.99, 28.55, 18.02)">O</text><text class="cls-1" transform="translate(43.94 19.66) rotate(5.71)">P</text><text class="cls-1" transform="matrix(1, 0.1, -0.1, 1, 53.88, 20.65)"> </text><text class="cls-1" transform="translate(59.24 21.17) rotate(5.17)">A</text><text class="cls-1" transform="translate(70.09 22.15) rotate(4.8)">T</text><text class="cls-1" transform="matrix(1, 0.08, -0.08, 1, 80.69, 23.04)"> </text><text class="cls-1" transform="translate(86.05 23.47) rotate(4.18)">T</text><text class="cls-1" transform="matrix(1, 0.06, -0.06, 1, 96.63, 24.25)">H</text><text class="cls-1" transform="translate(109.78 25.08) rotate(3.08)">R</text><text class="cls-1" transform="matrix(1, 0.05, -0.05, 1, 120.55, 25.65)">I</text><text class="cls-1" transform="translate(125.19 25.88) rotate(2.25)">F</text><text class="cls-1" transform="translate(134.75 26.26) rotate(1.59)">T</text><text class="cls-1" transform="translate(145.37 26.54) rotate(1)"> </text><text class="cls-1" transform="matrix(1, 0.01, -0.01, 1, 150.71, 26.65)">S</text><text class="cls-1" transform="translate(160.86 26.72) rotate(-0.67)">T</text><text class="cls-1" transform="translate(171.41 26.64) rotate(-2.27)">O</text><text class="cls-1" transform="translate(186.9 26) rotate(-4.5)">R</text><text class="cls-1" transform="translate(198.01 25.12) rotate(-7.13)">E</text><text class="cls-1" transform="translate(208.64 23.81) rotate(-11.05)">S</text></g></g></svg>